<svg class="main-svg" xmlns="http://www.w3.org/2000/svg" xmlns:xlink="http://www.w3.org/1999/xlink" width="700" height="500" style="" viewBox="0 0 700 500"><rect x="0" y="0" width="700" height="500" style="fill: rgb(255, 255, 255); fill-opacity: 1;"/><defs id="defs-c19ca7"><g class="clips"><clipPath id="clipc19ca7xyplot" class="plotclip"><rect width="489.27343315040173" height="436.513167104112"/></clipPath><clipPath class="axesclip" id="clipc19ca7x"><rect x="148.3607830271216" y="0" width="489.27343315040173" height="500"/></clipPath><clipPath class="axesclip" id="clipc19ca7y"><rect x="0" y="21.779527559055115" width="700" height="436.513167104112"/></clipPath><clipPath class="axesclip" id="clipc19ca7xy"><rect x="148.3607830271216" y="21.779527559055115" width="489.27343315040173" height="436.513167104112"/></clipPath></g><g class="gradients"/><g class="patterns"/></defs><g class="bglayer"/><g class="layer-below"><g class="imagelayer"/><g class="shapelayer"/></g><g class="cartesianlayer"><g class="subplot xy"><g class="layer-subplot"><g class="shapelayer"/><g class="imagelayer"/></g><g class="minor-gridlayer"><g class="x"/><g class="y"/></g><g class="gridlayer"><g class="x"/><g class="y"/></g><g class="zerolinelayer"/><g class="layer-between"><g class="shapelayer"/><g class="imagelayer"/></g><path class="xlines-below"/><path class="ylines-below"/><g class="overlines-below"/><g class="xaxislayer-below"/><g class="yaxislayer-below"/><g class="overaxes-below"/><g class="overplot"><g class="xy" transform="translate(148.3607830271216,21.779527559055115)" clip-path="url(#clipc19ca7xyplot)"><g class="scatterlayer mlayer"><g class="trace scatter tracec6ad12" style="stroke-miterlimit: 2; opacity: 1;"><g class="fills"/><g class="errorbars"/><g class="lines"/><g class="points"><path class="point" transform="translate(239.84,436.51)" d="M4,0A4,4 0 1,1 0,-4A4,4 0 0,1 4,0Z" style="opacity: 1; stroke-width: 1px; fill: rgb(0, 0, 0); fill-opacity: 1; stroke: rgb(0, 0, 0); stroke-opacity: 1;"/></g><g class="text"/></g><g class="trace scatter trace3f671a" style="stroke-miterlimit: 2; opacity: 1;"><g class="fills"/><g class="errorbars"/><g class="lines"><path class="js-line" d="M479.68,436.51L478.71,409.1L478.17,402.26L474.8,375.01L473.65,368.23L467.89,341.3L466.16,334.62L458.05,308.19L455.73,301.66L445.32,275.88L442.43,269.54L429.79,244.59L426.36,238.47L411.56,214.51L407.6,208.65L390.74,185.82L386.27,180.26L367.46,158.71L362.52,153.49L341.87,133.34L336.48,128.49L314.12,109.88L308.33,105.44L284.41,88.48L278.24,84.46L252.9,69.27L246.4,65.7L219.8,52.37L213.01,49.27L185.32,37.88L178.28,35.28L149.68,25.9L142.43,23.81L113.09,16.5L105.68,14.94L75.79,9.75L68.27,8.72L38.01,5.68L30.42,5.19L0,4.32" style="vector-effect: none; fill: none; stroke: rgb(0, 0, 0); stroke-opacity: 1; stroke-width: 1px; opacity: 1;"/></g><g class="points"/><g class="text"/></g><g class="trace scatter trace465abc" style="stroke-miterlimit: 2; opacity: 1;"><g class="fills"/><g class="errorbars"/><g class="lines"><path class="js-line" d="M0,436.51L47.97,6.49" style="vector-effect: none; fill: none; stroke: rgb(0, 0, 0); stroke-opacity: 0.3; stroke-dasharray: 9px, 3px, 3px, 3px; stroke-width: 1px; opacity: 1;"/></g><g class="points"/><g class="text"/></g><g class="trace scatter trace2430ba" style="stroke-miterlimit: 2; opacity: 1;"><g class="fills"/><g class="errorbars"/><g class="lines"><path class="js-line" d="M0,436.51L95.94,13.05" style="vector-effect: none; fill: none; stroke: rgb(0, 0, 0); stroke-opacity: 0.3; stroke-dasharray: 9px, 3px, 3px, 3px; stroke-width: 1px; opacity: 1;"/></g><g class="points"/><g class="text"/></g><g class="trace scatter tracebdf9e0" style="stroke-miterlimit: 2; opacity: 1;"><g class="fills"/><g class="errorbars"/><g class="lines"><path class="js-line" d="M0,436.51L143.9,24.23" style="vector-effect: none; fill: none; stroke: rgb(0, 0, 0); stroke-opacity: 0.3; stroke-dasharray: 9px, 3px, 3px, 3px; stroke-width: 1px; opacity: 1;"/></g><g class="points"/><g class="text"/></g><g class="trace scatter trace870fa5" style="stroke-miterlimit: 2; opacity: 1;"><g class="fills"/><g class="errorbars"/><g class="lines"><path class="js-line" d="M0,436.51L191.87,40.4" style="vector-effect: none; fill: none; stroke: rgb(0, 0, 0); stroke-opacity: 0.3; stroke-dasharray: 9px, 3px, 3px, 3px; stroke-width: 1px; opacity: 1;"/></g><g class="points"/><g class="text"/></g><g class="trace scatter trace6ba75c" style="stroke-miterlimit: 2; opacity: 1;"><g class="fills"/><g class="errorbars"/><g class="lines"><path class="js-line" d="M0,436.51L202.48,120.53L203.68,118.65L239.84,62.22" style="vector-effect: none; fill: none; stroke: rgb(0, 0, 0); stroke-opacity: 0.3; stroke-dasharray: 9px, 3px, 3px, 3px; stroke-width: 1px; opacity: 1;"/></g><g class="points"/><g class="text"/></g><g class="trace scatter tracef4630e" style="stroke-miterlimit: 2; opacity: 1;"><g class="fills"/><g class="errorbars"/><g class="lines"><path class="js-line" d="M0,436.51L140.29,267.98L141.73,266.24L284.92,94.24L286.36,92.5L287.81,90.76" style="vector-effect: none; fill: none; stroke: rgb(0, 0, 0); stroke-opacity: 0.3; stroke-dasharray: 9px, 3px, 3px, 3px; stroke-width: 1px; opacity: 1;"/></g><g class="points"/><g class="text"/></g><g class="trace scatter trace7ff725" style="stroke-miterlimit: 2; opacity: 1;"><g class="fills"/><g class="errorbars"/><g class="lines"><path class="js-line" d="M0,436.51L335.78,127.87" style="vector-effect: none; fill: none; stroke: rgb(0, 0, 0); stroke-opacity: 0.3; stroke-dasharray: 9px, 3px, 3px, 3px; stroke-width: 1px; opacity: 1;"/></g><g class="points"/><g class="text"/></g><g class="trace scatter trace5187a4" style="stroke-miterlimit: 2; opacity: 1;"><g class="fills"/><g class="errorbars"/><g class="lines"><path class="js-line" d="M0,436.51L383.74,177.2" style="vector-effect: none; fill: none; stroke: rgb(0, 0, 0); stroke-opacity: 0.3; stroke-dasharray: 9px, 3px, 3px, 3px; stroke-width: 1px; opacity: 1;"/></g><g class="points"/><g class="text"/></g><g class="trace scatter trace1978d9" style="stroke-miterlimit: 2; opacity: 1;"><g class="fills"/><g class="errorbars"/><g class="lines"><path class="js-line" d="M0,436.51L255.99,324.81L258.16,323.86L431.71,248.13" style="vector-effect: none; fill: none; stroke: rgb(0, 0, 0); stroke-opacity: 0.3; stroke-dasharray: 9px, 3px, 3px, 3px; stroke-width: 1px; opacity: 1;"/></g><g class="points"/><g class="text"/></g><g class="trace scatter traced0afdf" style="stroke-miterlimit: 2; opacity: 1;"><g class="fills"/><g class="errorbars"/><g class="lines"><path class="js-line" d="M0,436.51L217.54,372.09L219.83,371.41L455.7,301.56" style="vector-effect: none; fill: none; stroke: rgb(0, 0, 0); stroke-opacity: 0.3; stroke-dasharray: 9px, 3px, 3px, 3px; stroke-width: 1px; opacity: 1;"/></g><g class="points"/><g class="text"/></g><g class="trace scatter traceab2b3f" style="stroke-miterlimit: 2; opacity: 1;"><g class="fills"/><g class="errorbars"/><g class="lines"><path class="js-line" d="M0,436.51L264.88,402.51L267.27,402.2L474.88,375.55" style="vector-effect: none; fill: none; stroke: rgb(0, 0, 0); stroke-opacity: 0.3; stroke-dasharray: 9px, 3px, 3px, 3px; stroke-width: 1px; opacity: 1;"/></g><g class="points"/><g class="text"/></g><g class="trace scatter tracece2d68" style="stroke-miterlimit: 2; opacity: 1;"><g class="fills"/><g class="errorbars"/><g class="lines"><path class="js-line" d="M119.92,436.51L119.23,424.97L119.15,424.29L116.85,412.23L116.68,411.57L112.54,399.2L112.28,398.57L106.8,387.37L106.45,386.76L99.53,376.24L99.1,375.67L91.32,366.48L90.83,365.97L81.95,357.63L81.39,357.17L70.91,349.38L70.3,348.98L58.87,342.38L58.21,342.05L45.98,336.72L45.28,336.46L30.98,332.13L30.25,331.96L16.18,329.45L15.43,329.36L0.38,328.47" style="vector-effect: none; fill: none; stroke: rgb(128, 128, 128); stroke-opacity: 1; stroke-dasharray: 9px, 9px; stroke-width: 1px; opacity: 1;"/></g><g class="points"/><g class="text"/></g><g class="trace scatter trace4a437e" style="stroke-miterlimit: 2; opacity: 1;"><g class="fills"/><g class="errorbars"/><g class="lines"><path class="js-line" d="M239.84,436.51L239.16,420.2L239.04,418.85L236.63,401.3L236.38,399.96L232.27,382.67L231.89,381.35L226.11,364.45L225.6,363.17L218.82,348.04L218.19,346.8L210.06,332.22L209.32,331.03L199.89,317.09L199.05,315.96L187.45,301.7L186.5,300.64L173.55,287.36L172.5,286.38L159.43,275.08L158.3,274.17L143.04,263.06L141.83,262.25L125.54,252.39L124.25,251.68L107.06,243.14L105.71,242.54L87.76,235.4L86.35,234.91L67.77,229.22L66.32,228.84L47.25,224.65L45.77,224.39L26.37,221.73L24.87,221.58L3.77,220.44L2.26,220.43L0.75,220.42" style="vector-effect: none; fill: none; stroke: rgb(128, 128, 128); stroke-opacity: 1; stroke-dasharray: 9px, 9px; stroke-width: 1px; opacity: 1;"/></g><g class="points"/><g class="text"/></g><g class="trace scatter trace01dcb3" style="stroke-miterlimit: 2; opacity: 1;"><g class="fills"/><g class="errorbars"/><g class="lines"><path class="js-line" d="M359.76,436.51L359.05,416.12L358.9,414.08L356.31,391.76L355.99,389.74L352.02,369.65L351.55,367.66L346.04,347.86L345.42,345.9L338.41,326.5L337.63,324.58L328.23,303.8L327.29,301.94L317.25,283.66L316.17,281.86L304.75,264.24L303.54,262.52L289.45,244.01L288.1,242.37L272.49,224.88L271.01,223.33L255.59,208.39L253.99,206.95L237.45,193.01L235.75,191.66L216.38,177.55L214.56,176.33L194.07,163.58L192.16,162.48L170.65,151.16L168.65,150.19L146.26,140.37L144.19,139.54L121.03,131.26L118.9,130.58L95.12,123.9L92.93,123.37L68.66,118.33L66.43,117.94L41.81,114.57L39.56,114.34L14.72,112.64L12.45,112.56L1.13,112.37" style="vector-effect: none; fill: none; stroke: rgb(128, 128, 128); stroke-opacity: 1; stroke-dasharray: 9px, 9px; stroke-width: 1px; opacity: 1;"/></g><g class="points"/><g class="text"/></g><g class="trace scatter trace246755" style="stroke-miterlimit: 2; opacity: 1;"><g class="fills"/><g class="errorbars"/><g class="lines"/><g class="points"><path class="point" transform="translate(239.84,436.51)" d="M4,0A4,4 0 1,1 0,-4A4,4 0 0,1 4,0Z" style="opacity: 1; stroke-width: 1px; fill: rgb(0, 0, 0); fill-opacity: 1; stroke: rgb(0, 0, 0); stroke-opacity: 1;"/></g><g class="text"/></g><g class="trace scatter tracef3dd8b" style="stroke-miterlimit: 2; opacity: 1;"><g class="fills"/><g class="errorbars"/><g class="lines"/><g class="points"><path class="point" transform="translate(0,436.51)" d="M7,0A7,7 0 1,1 0,-7A7,7 0 0,1 7,0Z" style="opacity: 1; stroke-width: 1.5px; fill: rgb(244, 124, 124); fill-opacity: 0.4; stroke: rgb(244, 124, 124); stroke-opacity: 0.6;"/></g><g class="text"/></g><g class="trace scatter trace2ba580" style="stroke-miterlimit: 2; opacity: 1;"><g class="fills"/><g class="errorbars"/><g class="lines"/><g class="points"><path class="point" transform="translate(0,436.51)" d="M7,0A7,7 0 1,1 0,-7A7,7 0 0,1 7,0Z" style="opacity: 1; stroke-width: 1.5px; fill: rgb(112, 161, 215); fill-opacity: 0.4; stroke: rgb(112, 161, 215); stroke-opacity: 0.6;"/></g><g class="text"/></g><g class="trace scatter trace602ff7" style="stroke-miterlimit: 2; opacity: 1;"><g class="fills"/><g class="errorbars"/><g class="lines"/><g class="points"><path class="point" transform="translate(0,436.51)" d="M7,0A7,7 0 1,1 0,-7A7,7 0 0,1 7,0Z" style="opacity: 1; stroke-width: 1.5px; fill: rgb(93, 174, 139); fill-opacity: 0.4; stroke: rgb(93, 174, 139); stroke-opacity: 0.6;"/></g><g class="text"/></g><g class="trace scatter trace559324" style="stroke-miterlimit: 2; opacity: 1;"><g class="fills"/><g class="errorbars"/><g class="lines"/><g class="points"><path class="point" transform="translate(383.74,350.07)" d="M7,0A7,7 0 1,1 0,-7A7,7 0 0,1 7,0Z" style="opacity: 1; stroke-width: 1.5px; fill: rgb(128, 128, 128); fill-opacity: 0.4; stroke: rgb(128, 128, 128); stroke-opacity: 0.6;"/></g><g class="text"/></g><g class="trace scatter trace1677d1" style="stroke-miterlimit: 2; opacity: 1;"><g class="fills"/><g class="errorbars"/><g class="lines"/><g class="points"><path class="point" transform="translate(0,436.51)" d="M7,7H-7V-7H7Z" style="opacity: 1; stroke-width: 1.5px; fill: rgb(244, 124, 124); fill-opacity: 0.4; stroke: rgb(244, 124, 124); stroke-opacity: 0.6;"/></g><g class="text"/></g><g class="trace scatter trace0c1cef" style="stroke-miterlimit: 2; opacity: 1;"><g class="fills"/><g class="errorbars"/><g class="lines"/><g class="points"><path class="point" transform="translate(0,436.51)" d="M7,7H-7V-7H7Z" style="opacity: 1; stroke-width: 1.5px; fill: rgb(112, 161, 215); fill-opacity: 0.4; stroke: rgb(112, 161, 215); stroke-opacity: 0.6;"/></g><g class="text"/></g><g class="trace scatter trace0cb27d" style="stroke-miterlimit: 2; opacity: 1;"><g class="fills"/><g class="errorbars"/><g class="lines"/><g class="points"><path class="point" transform="translate(0,436.51)" d="M7,7H-7V-7H7Z" style="opacity: 1; stroke-width: 1.5px; fill: rgb(93, 174, 139); fill-opacity: 0.4; stroke: rgb(93, 174, 139); stroke-opacity: 0.6;"/></g><g class="text"/></g><g class="trace scatter trace47e4f3" style="stroke-miterlimit: 2; opacity: 1;"><g class="fills"/><g class="errorbars"/><g class="lines"/><g class="points"><path class="point" transform="translate(383.74,371.68)" d="M7,7H-7V-7H7Z" style="opacity: 1; stroke-width: 1.5px; fill: rgb(128, 128, 128); fill-opacity: 0.4; stroke: rgb(128, 128, 128); stroke-opacity: 0.6;"/></g><g class="text"/></g><g class="trace scatter trace3cd9e8" style="stroke-miterlimit: 2; opacity: 1;"><g class="fills"/><g class="errorbars"/><g class="lines"/><g class="points"><path class="point" transform="translate(0,436.51)" d="M9.1,0L0,9.1L-9.1,0L0,-9.1Z" style="opacity: 1; stroke-width: 1.5px; fill: rgb(244, 124, 124); fill-opacity: 0.4; stroke: rgb(244, 124, 124); stroke-opacity: 0.6;"/></g><g class="text"/></g><g class="trace scatter trace81d262" style="stroke-miterlimit: 2; opacity: 1;"><g class="fills"/><g class="errorbars"/><g class="lines"/><g class="points"><path class="point" transform="translate(0,436.51)" d="M9.1,0L0,9.1L-9.1,0L0,-9.1Z" style="opacity: 1; stroke-width: 1.5px; fill: rgb(112, 161, 215); fill-opacity: 0.4; stroke: rgb(112, 161, 215); stroke-opacity: 0.6;"/></g><g class="text"/></g><g class="trace scatter tracea368a1" style="stroke-miterlimit: 2; opacity: 1;"><g class="fills"/><g class="errorbars"/><g class="lines"/><g class="points"><path class="point" transform="translate(0,436.51)" d="M9.1,0L0,9.1L-9.1,0L0,-9.1Z" style="opacity: 1; stroke-width: 1.5px; fill: rgb(93, 174, 139); fill-opacity: 0.4; stroke: rgb(93, 174, 139); stroke-opacity: 0.6;"/></g><g class="text"/></g><g class="trace scatter tracee0f4c4" style="stroke-miterlimit: 2; opacity: 1;"><g class="fills"/><g class="errorbars"/><g class="lines"/><g class="points"><path class="point" transform="translate(383.74,393.29)" d="M9.1,0L0,9.1L-9.1,0L0,-9.1Z" style="opacity: 1; stroke-width: 1.5px; fill: rgb(128, 128, 128); fill-opacity: 0.4; stroke: rgb(128, 128, 128); stroke-opacity: 0.6;"/></g><g class="text"/></g><g class="trace scatter traced26615" style="stroke-miterlimit: 2; opacity: 1;"><g class="fills"/><g class="errorbars"/><g class="lines"/><g class="points"><path class="point" transform="translate(0,436.51)" d="M-8.08,3.5H8.08L0,-7Z" style="opacity: 1; stroke-width: 1.5px; fill: rgb(244, 124, 124); fill-opacity: 0.4; stroke: rgb(244, 124, 124); stroke-opacity: 0.6;"/></g><g class="text"/></g><g class="trace scatter traceec0ba7" style="stroke-miterlimit: 2; opacity: 1;"><g class="fills"/><g class="errorbars"/><g class="lines"/><g class="points"><path class="point" transform="translate(0,436.51)" d="M-8.08,3.5H8.08L0,-7Z" style="opacity: 1; stroke-width: 1.5px; fill: rgb(112, 161, 215); fill-opacity: 0.4; stroke: rgb(112, 161, 215); stroke-opacity: 0.6;"/></g><g class="text"/></g><g class="trace scatter traceff6613" style="stroke-miterlimit: 2; opacity: 1;"><g class="fills"/><g class="errorbars"/><g class="lines"/><g class="points"><path class="point" transform="translate(0,436.51)" d="M-8.08,3.5H8.08L0,-7Z" style="opacity: 1; stroke-width: 1.5px; fill: rgb(93, 174, 139); fill-opacity: 0.4; stroke: rgb(93, 174, 139); stroke-opacity: 0.6;"/></g><g class="text"/></g><g class="trace scatter trace31260a" style="stroke-miterlimit: 2; opacity: 1;"><g class="fills"/><g class="errorbars"/><g class="lines"/><g class="points"><path class="point" transform="translate(383.74,414.9)" d="M-8.08,3.5H8.08L0,-7Z" style="opacity: 1; stroke-width: 1.5px; fill: rgb(128, 128, 128); fill-opacity: 0.4; stroke: rgb(128, 128, 128); stroke-opacity: 0.6;"/></g><g class="text"/></g></g></g></g><path class="xlines-above crisp" d="M147.3607830271216,458.7926946631671H637.6342161775233" style="fill: none; stroke-width: 1px; stroke: rgb(0, 0, 0); stroke-opacity: 1;"/><path class="ylines-above crisp" d="M147.8607830271216,21.779527559055115V458.2926946631671" style="fill: none; stroke-width: 1px; stroke: rgb(0, 0, 0); stroke-opacity: 1;"/><g class="overlines-above"/><g class="xaxislayer-above"><path class="xtick ticks crisp" d="M0,458.2926946631671v-5" transform="translate(268.28078302712163,0)" style="stroke: rgb(0, 0, 0); stroke-opacity: 1; stroke-width: 1px;"/><path class="xtick ticks crisp" d="M0,458.2926946631671v-5" transform="translate(388.2007830271216,0)" style="stroke: rgb(0, 0, 0); stroke-opacity: 1; stroke-width: 1px;"/><path class="xtick ticks crisp" d="M0,458.2926946631671v-5" transform="translate(508.1207830271216,0)" style="stroke: rgb(0, 0, 0); stroke-opacity: 1; stroke-width: 1px;"/><path class="xtick ticks crisp" d="M0,458.2926946631671v-5" transform="translate(628.0407830271216,0)" style="stroke: rgb(0, 0, 0); stroke-opacity: 1; stroke-width: 1px;"/><g class="xtick"><text text-anchor="middle" x="0" y="472.4926946631671" transform="translate(148.3607830271216,0)" style="font-size: 11px; fill: rgb(0, 0, 0); fill-opacity: 1; white-space: pre; opacity: 1;">0</text></g><g class="xtick"><text text-anchor="middle" x="0" y="472.4926946631671" style="font-size: 11px; fill: rgb(0, 0, 0); fill-opacity: 1; white-space: pre; opacity: 1;" transform="translate(268.28078302712163,0)">0.5</text></g><g class="xtick"><text text-anchor="middle" x="0" y="472.4926946631671" style="font-size: 11px; fill: rgb(0, 0, 0); fill-opacity: 1; white-space: pre; opacity: 1;" transform="translate(388.2007830271216,0)">1</text></g><g class="xtick"><text text-anchor="middle" x="0" y="472.4926946631671" style="font-size: 11px; fill: rgb(0, 0, 0); fill-opacity: 1; white-space: pre; opacity: 1;" transform="translate(508.1207830271216,0)">1.5</text></g><g class="xtick"><text text-anchor="middle" x="0" y="472.4926946631671" style="font-size: 11px; fill: rgb(0, 0, 0); fill-opacity: 1; white-space: pre; opacity: 1;" transform="translate(628.0407830271216,0)">2</text></g></g><g class="yaxislayer-above"><path class="ytick ticks crisp" d="M148.3607830271216,0h5" transform="translate(0,350.24952755905514)" style="stroke: rgb(0, 0, 0); stroke-opacity: 1; stroke-width: 1px;"/><path class="ytick ticks crisp" d="M148.3607830271216,0h5" transform="translate(0,242.1995275590551)" style="stroke: rgb(0, 0, 0); stroke-opacity: 1; stroke-width: 1px;"/><path class="ytick ticks crisp" d="M148.3607830271216,0h5" transform="translate(0,134.14952755905512)" style="stroke: rgb(0, 0, 0); stroke-opacity: 1; stroke-width: 1px;"/><path class="ytick ticks crisp" d="M148.3607830271216,0h5" transform="translate(0,26.099527559055115)" style="stroke: rgb(0, 0, 0); stroke-opacity: 1; stroke-width: 1px;"/><g class="ytick"><text text-anchor="end" x="145.16078302712162" y="3.8499999999999996" transform="translate(0,350.24952755905514)" style="font-size: 11px; fill: rgb(0, 0, 0); fill-opacity: 1; white-space: pre; opacity: 1;">0.5</text></g><g class="ytick"><text text-anchor="end" x="145.16078302712162" y="3.8499999999999996" style="font-size: 11px; fill: rgb(0, 0, 0); fill-opacity: 1; white-space: pre; opacity: 1;" transform="translate(0,242.1995275590551)">1.0</text></g><g class="ytick"><text text-anchor="end" x="145.16078302712162" y="3.8499999999999996" style="font-size: 11px; fill: rgb(0, 0, 0); fill-opacity: 1; white-space: pre; opacity: 1;" transform="translate(0,134.14952755905512)">1.5</text></g><g class="ytick"><text text-anchor="end" x="145.16078302712162" y="3.8499999999999996" style="font-size: 11px; fill: rgb(0, 0, 0); fill-opacity: 1; white-space: pre; opacity: 1;" transform="translate(0,26.099527559055115)">2.0</text></g></g><g class="overaxes-above"/></g></g><g class="polarlayer"/><g class="smithlayer"/><g class="ternarylayer"/><g class="geolayer"/><g class="funnelarealayer"/><g class="pielayer"/><g class="iciclelayer"/><g class="treemaplayer"/><g class="sunburstlayer"/><g class="glimages"/><defs id="topdefs-c19ca7"><g class="clips"/><clipPath id="legendc19ca7"><rect width="135" height="86" x="1" y="1"/></clipPath></defs><g class="layer-above"><g class="imagelayer"/><g class="shapelayer"/></g><g class="infolayer"><g class="legend" pointer-events="all" transform="translate(563,20)"><rect class="bg" shape-rendering="crispEdges" style="stroke: rgb(0, 0, 0); stroke-opacity: 0; fill: rgb(255, 255, 255); fill-opacity: 1; stroke-width: 1px;" width="136" height="87" x="0.5" y="0.5"/><g class="scrollbox" transform="" clip-path="url(#legendc19ca7)"><g class="groups"><g class="traces" transform="translate(1,15.5)" style="opacity: 1;"><text class="legendtext" text-anchor="start" x="40" y="4.29" style="font-size: 11px; fill: rgb(0, 0, 0); fill-opacity: 1; white-space: pre;">Data</text><g class="layers" style="opacity: 1;"><g class="legendfill"/><g class="legendlines"/><g class="legendsymbols"><g class="legendpoints"><path class="scatterpts" transform="translate(20,0)" d="M4,0A4,4 0 1,1 0,-4A4,4 0 0,1 4,0Z" style="opacity: 1; stroke-width: 1px; fill: rgb(0, 0, 0); fill-opacity: 1; stroke: rgb(0, 0, 0); stroke-opacity: 1;"/></g></g></g><rect class="legendtoggle" x="0" y="-9.5" width="129.484375" height="19" style="fill: rgb(0, 0, 0); fill-opacity: 0;"/></g><g class="traces" transform="translate(1,34.5)" style="opacity: 1;"><text class="legendtext" text-anchor="start" x="40" y="4.29" style="font-size: 11px; fill: rgb(0, 0, 0); fill-opacity: 1; white-space: pre;">PlantBiophysics.jl</text><g class="layers" style="opacity: 1;"><g class="legendfill"/><g class="legendlines"/><g class="legendsymbols"><g class="legendpoints"><path class="scatterpts" transform="translate(20,0)" d="M7,0A7,7 0 1,1 0,-7A7,7 0 0,1 7,0Z" style="opacity: 1; stroke-width: 1.5px; fill: rgb(244, 124, 124); fill-opacity: 0.4; stroke: rgb(244, 124, 124); stroke-opacity: 0.6;"/></g></g></g><rect class="legendtoggle" x="0" y="-9.5" width="129.484375" height="19" style="fill: rgb(0, 0, 0); fill-opacity: 0;"/></g><g class="traces" transform="translate(1,53.5)" style="opacity: 1;"><text class="legendtext" text-anchor="start" x="40" y="4.29" style="font-size: 11px; fill: rgb(0, 0, 0); fill-opacity: 1; white-space: pre;">plantecophys</text><g class="layers" style="opacity: 1;"><g class="legendfill"/><g class="legendlines"/><g class="legendsymbols"><g class="legendpoints"><path class="scatterpts" transform="translate(20,0)" d="M7,0A7,7 0 1,1 0,-7A7,7 0 0,1 7,0Z" style="opacity: 1; stroke-width: 1.5px; fill: rgb(112, 161, 215); fill-opacity: 0.4; stroke: rgb(112, 161, 215); stroke-opacity: 0.6;"/></g></g></g><rect class="legendtoggle" x="0" y="-9.5" width="129.484375" height="19" style="fill: rgb(0, 0, 0); fill-opacity: 0;"/></g><g class="traces" transform="translate(1,72.5)" style="opacity: 1;"><text class="legendtext" text-anchor="start" x="40" y="4.29" style="font-size: 11px; fill: rgb(0, 0, 0); fill-opacity: 1; white-space: pre;">LeafGasExchange.jl</text><g class="layers" style="opacity: 1;"><g class="legendfill"/><g class="legendlines"/><g class="legendsymbols"><g class="legendpoints"><path class="scatterpts" transform="translate(20,0)" d="M7,0A7,7 0 1,1 0,-7A7,7 0 0,1 7,0Z" style="opacity: 1; stroke-width: 1.5px; fill: rgb(93, 174, 139); fill-opacity: 0.4; stroke: rgb(93, 174, 139); stroke-opacity: 0.6;"/></g></g></g><rect class="legendtoggle" x="0" y="-9.5" width="129.484375" height="19" style="fill: rgb(0, 0, 0); fill-opacity: 0;"/></g></g></g><rect class="scrollbar" rx="20" ry="3" width="0" height="0" style="fill: rgb(128, 139, 164); fill-opacity: 1;" x="0" y="0"/></g><g class="g-gtitle"/><g class="g-xtitle" transform="translate(0,-2.5)"><text class="xtitle" x="392.9974996023225" y="499.5" text-anchor="middle" style="opacity: 1; font-size: 15px; fill: rgb(0, 0, 0); fill-opacity: 1; white-space: pre;">Normalized standard deviation</text></g><g class="g-ytitle"><text class="ytitle" transform="rotate(-90,111.65625,240.0361111111111)" x="111.65625" y="240.0361111111111" text-anchor="middle" style="opacity: 1; font-size: 15px; fill: rgb(0, 0, 0); fill-opacity: 1; white-space: pre;">Normalized standard deviation</text></g><g class="annotation" data-index="0" style="opacity: 1;"><g class="annotation-text-g" transform="rotate(0,397.7907830271216,449.6495275590551)"><g class="cursor-pointer" transform="translate(396,448)"><rect class="bg" x="0.5" y="0.5" width="3" height="3" style="stroke-width: 1px; stroke: rgb(0, 0, 0); stroke-opacity: 0; fill: rgb(0, 0, 0); fill-opacity: 0;"/><text class="annotation-text" text-anchor="middle" x="2" y="2" style="font-family: sans-serif; font-size: 11px; fill: rgb(0, 0, 0); fill-opacity: 1; white-space: pre;"></text></g></g></g><g class="annotation" data-index="1" style="opacity: 1;"><g class="annotation-text-g" transform="rotate(0,205.8107830271216,23.969527559055116)"><g class="cursor-pointer" transform="translate(197,16)"><rect class="bg" x="0.5" y="0.5" width="17" height="14" style="stroke-width: 1px; stroke: rgb(0, 0, 0); stroke-opacity: 0; fill: rgb(0, 0, 0); fill-opacity: 0;"/><text class="annotation-text" text-anchor="middle" x="8.953125" y="11" style="font-family: sans-serif; font-size: 10px; fill: rgb(0, 0, 0); fill-opacity: 1; white-space: pre;">0.1</text></g></g></g><g class="annotation" data-index="2" style="opacity: 1;"><g class="annotation-text-g" transform="rotate(0,254.26078302712162,30.599527559055115)"><g class="cursor-pointer" transform="translate(245,23)"><rect class="bg" x="0.5" y="0.5" width="17" height="14" style="stroke-width: 1px; stroke: rgb(0, 0, 0); stroke-opacity: 0; fill: rgb(0, 0, 0); fill-opacity: 0;"/><text class="annotation-text" text-anchor="middle" x="8.953125" y="11" style="font-family: sans-serif; font-size: 10px; fill: rgb(0, 0, 0); fill-opacity: 1; white-space: pre;">0.2</text></g></g></g><g class="annotation" data-index="3" style="opacity: 1;"><g class="annotation-text-g" transform="rotate(0,302.7007830271216,41.88952755905511)"><g class="cursor-pointer" transform="translate(294,34)"><rect class="bg" x="0.5" y="0.5" width="17" height="14" style="stroke-width: 1px; stroke: rgb(0, 0, 0); stroke-opacity: 0; fill: rgb(0, 0, 0); fill-opacity: 0;"/><text class="annotation-text" text-anchor="middle" x="8.953125" y="11" style="font-family: sans-serif; font-size: 10px; fill: rgb(0, 0, 0); fill-opacity: 1; white-space: pre;">0.3</text></g></g></g><g class="annotation" data-index="4" style="opacity: 1;"><g class="annotation-text-g" transform="rotate(0,351.15078302712163,58.21952755905511)"><g class="cursor-pointer" transform="translate(342,51)"><rect class="bg" x="0.5" y="0.5" width="17" height="14" style="stroke-width: 1px; stroke: rgb(0, 0, 0); stroke-opacity: 0; fill: rgb(0, 0, 0); fill-opacity: 0;"/><text class="annotation-text" text-anchor="middle" x="8.953125" y="11" style="font-family: sans-serif; font-size: 10px; fill: rgb(0, 0, 0); fill-opacity: 1; white-space: pre;">0.4</text></g></g></g><g class="annotation" data-index="5" style="opacity: 1;"><g class="annotation-text-g" transform="rotate(0,399.6007830271216,80.25952755905512)"><g class="cursor-pointer" transform="translate(391,73)"><rect class="bg" x="0.5" y="0.5" width="17" height="14" style="stroke-width: 1px; stroke: rgb(0, 0, 0); stroke-opacity: 0; fill: rgb(0, 0, 0); fill-opacity: 0;"/><text class="annotation-text" text-anchor="middle" x="8.953125" y="11" style="font-family: sans-serif; font-size: 10px; fill: rgb(0, 0, 0); fill-opacity: 1; white-space: pre;">0.5</text></g></g></g><g class="annotation" data-index="6" style="opacity: 1;"><g class="annotation-text-g" transform="rotate(0,448.0507830271216,109.07952755905511)"><g class="cursor-pointer" transform="translate(439,102)"><rect class="bg" x="0.5" y="0.5" width="17" height="14" style="stroke-width: 1px; stroke: rgb(0, 0, 0); stroke-opacity: 0; fill: rgb(0, 0, 0); fill-opacity: 0;"/><text class="annotation-text" text-anchor="middle" x="8.953125" y="11" style="font-family: sans-serif; font-size: 10px; fill: rgb(0, 0, 0); fill-opacity: 1; white-space: pre;">0.6</text></g></g></g><g class="annotation" data-index="7" style="opacity: 1;"><g class="annotation-text-g" transform="rotate(0,496.4907830271216,146.5595275590551)"><g class="cursor-pointer" transform="translate(487,139)"><rect class="bg" x="0.5" y="0.5" width="17" height="14" style="stroke-width: 1px; stroke: rgb(0, 0, 0); stroke-opacity: 0; fill: rgb(0, 0, 0); fill-opacity: 0;"/><text class="annotation-text" text-anchor="middle" x="8.953125" y="11" style="font-family: sans-serif; font-size: 10px; fill: rgb(0, 0, 0); fill-opacity: 1; white-space: pre;">0.7</text></g></g></g><g class="annotation" data-index="8" style="opacity: 1;"><g class="annotation-text-g" transform="rotate(0,544.9407830271216,196.38952755905513)"><g class="cursor-pointer" transform="translate(536,189)"><rect class="bg" x="0.5" y="0.5" width="17" height="14" style="stroke-width: 1px; stroke: rgb(0, 0, 0); stroke-opacity: 0; fill: rgb(0, 0, 0); fill-opacity: 0;"/><text class="annotation-text" text-anchor="middle" x="8.953125" y="11" style="font-family: sans-serif; font-size: 10px; fill: rgb(0, 0, 0); fill-opacity: 1; white-space: pre;">0.8</text></g></g></g><g class="annotation" data-index="9" style="opacity: 1;"><g class="annotation-text-g" transform="rotate(0,593.3907830271216,268.0195275590551)"><g class="cursor-pointer" transform="translate(584,261)"><rect class="bg" x="0.5" y="0.5" width="17" height="14" style="stroke-width: 1px; stroke: rgb(0, 0, 0); stroke-opacity: 0; fill: rgb(0, 0, 0); fill-opacity: 0;"/><text class="annotation-text" text-anchor="middle" x="8.953125" y="11" style="font-family: sans-serif; font-size: 10px; fill: rgb(0, 0, 0); fill-opacity: 1; white-space: pre;">0.9</text></g></g></g><g class="annotation" data-index="10" style="opacity: 1;"><g class="annotation-text-g" transform="rotate(0,620.6107830271217,321.9895275590551)"><g class="cursor-pointer" transform="translate(609,314)"><rect class="bg" x="0.5" y="0.5" width="23" height="14" style="stroke-width: 1px; stroke: rgb(0, 0, 0); stroke-opacity: 0; fill: rgb(0, 0, 0); fill-opacity: 0;"/><text class="annotation-text" text-anchor="middle" x="11.734375" y="11" style="font-family: sans-serif; font-size: 10px; fill: rgb(0, 0, 0); fill-opacity: 1; white-space: pre;">0.95</text></g></g></g><g class="annotation" data-index="11" style="opacity: 1;"><g class="annotation-text-g" transform="rotate(0,639.9907830271216,396.7195275590551)"><g class="cursor-pointer" transform="translate(628,389)"><rect class="bg" x="0.5" y="0.5" width="23" height="14" style="stroke-width: 1px; stroke: rgb(0, 0, 0); stroke-opacity: 0; fill: rgb(0, 0, 0); fill-opacity: 0;"/><text class="annotation-text" text-anchor="middle" x="11.734375" y="11" style="font-family: sans-serif; font-size: 10px; fill: rgb(0, 0, 0); fill-opacity: 1; white-space: pre;">0.99</text></g></g></g><g class="annotation" data-index="12" style="opacity: 1;"><g class="annotation-text-g" transform="rotate(0,511.2907830271216,131.29952755905512)"><g class="cursor-pointer" transform="translate(465,119)"><rect class="bg" x="0.5" y="0.5" width="91" height="23" style="stroke-width: 1px; stroke: rgb(0, 0, 0); stroke-opacity: 0; fill: rgb(0, 0, 0); fill-opacity: 0;"/><text class="annotation-text" text-anchor="middle" x="46.03125" y="18" style="font-family: sans-serif; font-size: 18px; fill: rgb(0, 0, 0); fill-opacity: 1; white-space: pre;">Correlation</text></g></g></g><g class="annotation" data-index="13" style="opacity: 1;"><g class="annotation-text-g" transform="rotate(0,551.1007830271217,372.93952755905514)"><g class="cursor-pointer" transform="translate(544,363)"><rect class="bg" x="0.5" y="0.5" width="13" height="19" style="stroke-width: 1px; stroke: rgb(0, 0, 0); stroke-opacity: 0; fill: rgb(0, 0, 0); fill-opacity: 0;"/><text class="annotation-text" text-anchor="middle" x="6.671875" y="15" style="font-family: sans-serif; font-size: 14px; fill: rgb(0, 0, 0); fill-opacity: 1; white-space: pre;">A</text></g></g></g><g class="annotation" data-index="14" style="opacity: 1;"><g class="annotation-text-g" transform="rotate(0,550.6007830271217,394.5395275590551)"><g class="cursor-pointer" transform="translate(544,385)"><rect class="bg" x="0.5" y="0.5" width="12" height="19" style="stroke-width: 1px; stroke: rgb(0, 0, 0); stroke-opacity: 0; fill: rgb(0, 0, 0); fill-opacity: 0;"/><text class="annotation-text" text-anchor="middle" x="6.671875" y="15" style="font-family: sans-serif; font-size: 14px; fill: rgb(0, 0, 0); fill-opacity: 1; white-space: pre;">E</text></g></g></g><g class="annotation" data-index="15" style="opacity: 1;"><g class="annotation-text-g" transform="rotate(0,552.1007830271217,416.1495275590551)"><g class="cursor-pointer" transform="translate(544,406)"><rect class="bg" x="0.5" y="0.5" width="15" height="19" style="stroke-width: 1px; stroke: rgb(0, 0, 0); stroke-opacity: 0; fill: rgb(0, 0, 0); fill-opacity: 0;"/><text class="annotation-text" text-anchor="middle" x="7.84375" y="15" style="font-family: sans-serif; font-size: 14px; fill: rgb(0, 0, 0); fill-opacity: 1; white-space: pre;">Tl</text></g></g></g><g class="annotation" data-index="16" style="opacity: 1;"><g class="annotation-text-g" transform="rotate(0,555.1007830271217,437.75952755905513)"><g class="cursor-pointer" transform="translate(544,428)"><rect class="bg" x="0.5" y="0.5" width="21" height="19" style="stroke-width: 1px; stroke: rgb(0, 0, 0); stroke-opacity: 0; fill: rgb(0, 0, 0); fill-opacity: 0;"/><text class="annotation-text" text-anchor="middle" x="10.953125" y="15" style="font-family: sans-serif; font-size: 14px; fill: rgb(0, 0, 0); fill-opacity: 1; white-space: pre;">Gs</text></g></g></g></g></svg>